<?xml version="1.0" standalone="no"?>
<!DOCTYPE svg PUBLIC "-//W3C//DTD SVG 20010904//EN"
 "http://www.w3.org/TR/2001/REC-SVG-20010904/DTD/svg10.dtd">
<svg version="1.0" xmlns="http://www.w3.org/2000/svg"
 width="1000.000000pt" height="1000.000000pt" viewBox="0 0 1000.000000 1000.000000"
 preserveAspectRatio="xMidYMid meet">
<metadata>
Created by potrace 1.11, written by Peter Selinger 2001-2013
</metadata>
<g transform="translate(0.000000,1000.000000) scale(0.100000,-0.100000)"
fill="#000000" stroke="none">
<path d="M5049 9676 c-2 -2 -60 -7 -128 -11 -68 -4 -133 -8 -145 -10 -11 -2
-52 -6 -91 -10 -106 -10 -209 -21 -265 -30 -14 -2 -45 -6 -70 -9 -25 -3 -54
-8 -65 -10 -11 -2 -40 -7 -65 -10 -25 -4 -65 -11 -90 -16 -25 -6 -56 -12 -70
-14 -234 -42 -559 -122 -805 -199 -55 -17 -102 -31 -105 -32 -34 -6 -391 -137
-422 -155 -10 -5 -23 -10 -28 -10 -6 0 -32 -10 -58 -21 -119 -54 -221 -102
-267 -126 -27 -15 -57 -30 -65 -34 -52 -27 -288 -171 -355 -218 -91 -62 -300
-221 -359 -272 -260 -224 -464 -437 -623 -650 -312 -419 -575 -928 -673 -1304
-12 -44 -37 -134 -56 -200 -66 -233 -134 -606 -149 -820 -11 -155 -13 -611 -4
-725 10 -130 55 -509 69 -585 5 -27 11 -72 15 -100 3 -27 15 -95 25 -150 10
-55 21 -116 24 -135 24 -158 108 -527 162 -719 53 -185 75 -244 159 -416 405
-837 1271 -1589 2220 -1926 289 -103 816 -236 1125 -284 19 -3 60 -10 90 -15
30 -5 75 -12 100 -15 25 -3 52 -8 60 -10 8 -2 42 -6 75 -10 33 -3 67 -8 75
-10 8 -2 40 -6 71 -10 31 -3 65 -7 75 -9 11 -2 51 -7 89 -10 39 -4 81 -9 95
-11 14 -2 61 -7 105 -10 44 -4 94 -9 110 -10 17 -2 68 -6 115 -10 47 -3 105
-8 130 -10 41 -4 111 -8 330 -20 412 -23 934 -23 1230 0 80 6 267 19 435 30
50 3 117 8 150 10 33 2 103 7 155 10 191 13 207 40 70 120 -233 138 -449 315
-597 490 -50 59 -153 201 -153 210 0 3 -13 26 -29 52 -75 122 -177 412 -211
603 -24 131 -30 189 -30 305 -1 292 131 684 304 900 124 155 361 321 574 401
55 21 82 29 177 50 26 6 265 5 330 -1 48 -5 73 -8 153 -21 154 -25 401 -148
516 -256 80 -77 93 -63 336 367 112 197 411 626 532 761 18 21 58 65 87 98 30
34 66 74 80 90 15 16 33 36 41 45 8 9 38 43 65 76 49 58 148 165 231 249 59
60 80 94 65 109 -16 16 -5825 23 -5866 7 -51 -19 -27 -42 130 -120 164 -82
214 -114 315 -201 147 -126 318 -388 410 -625 56 -147 62 -179 61 -328 0 -76
-3 -146 -5 -155 -3 -9 -7 -43 -11 -76 -8 -78 -48 -235 -77 -305 -99 -236 -283
-407 -568 -529 -72 -30 -239 -81 -320 -98 -89 -18 -405 -25 -530 -12 -250 26
-541 121 -895 294 -276 135 -399 227 -547 410 -152 188 -324 455 -353 549 -9
28 -20 60 -25 71 -55 124 -140 486 -160 680 -8 88 -7 500 3 540 5 23 14 88 22
155 29 255 101 519 207 765 166 385 278 561 500 791 303 313 651 516 1058 619
52 13 113 26 135 29 22 4 47 8 55 11 8 2 35 6 60 9 25 3 54 8 65 10 170 33
556 31 782 -3 326 -49 640 -159 795 -277 211 -161 296 -234 431 -369 129 -129
187 -203 277 -350 40 -66 80 -128 87 -137 19 -21 58 -15 98 16 25 20 343 296
501 435 22 20 184 158 359 306 479 406 907 770 935 797 14 13 88 79 165 148
77 69 149 133 160 144 11 10 53 43 93 73 88 65 109 102 84 147 -29 48 -482
500 -562 558 -72 53 -318 218 -324 218 -2 0 -46 25 -97 56 -92 56 -325 175
-364 186 -11 4 -53 18 -94 32 -162 57 -677 148 -966 171 -44 4 -91 9 -105 12
-29 6 -785 15 -791 9z"/>
</g>
</svg>
