<svg xmlns="http://www.w3.org/2000/svg" viewBox="0 0 100 100">
	<path d="M37.53,67.1H33.44a1.1,1.1,0,0,1-1-.71l-1.2-3.21L28.1,61.66l-2.47,1.75a1.1,1.1,0,0,1-1.43-.13l-3.52-3.63a1.1,1.1,0,0,1-.14-1.35l1.52-2.4-1.41-3.41-3-.91a1.1,1.1,0,0,1-.78-1.05v-4.4a1.1,1.1,0,0,1,.79-1.06l3.12-.92,1.27-3.36-1.51-2.26a1.1,1.1,0,0,1,.12-1.37L24,33.67a1.1,1.1,0,0,1,1.34-.2L28.06,35l3.11-1.4.91-3a1.1,1.1,0,0,1,1.05-.78h4.69a1.1,1.1,0,0,1,1.07.86l.66,2.94L42.9,35l2.37-1.46a1.1,1.1,0,0,1,1.34.14L50.09,37a1.1,1.1,0,0,1,.18,1.36l-1.53,2.52,1.39,3.35,2.92.64A1.1,1.1,0,0,1,53.91,46v4.5a1.1,1.1,0,0,1-.78,1.05l-3,.91-1.4,3.28,1.55,2.72a1.1,1.1,0,0,1-.18,1.32l-3.35,3.36a1.1,1.1,0,0,1-1.39.14l-2.49-1.66L39.5,63.15l-.92,3.16A1.1,1.1,0,0,1,37.53,67.1ZM34.2,64.9h2.5l.83-2.85a1.1,1.1,0,0,1,.6-.69l4.39-2a1.09,1.09,0,0,1,1.07.09l2.25,1.5L48,58.82l-1.41-2.46a1.1,1.1,0,0,1-.06-1l1.82-4.25a1.1,1.1,0,0,1,.69-.62l2.7-.82v-2.8l-2.61-.57a1.1,1.1,0,0,1-.78-.65l-1.82-4.4a1.1,1.1,0,0,1,.08-1L47.93,38,45.7,35.88l-2.13,1.31a1.1,1.1,0,0,1-1,.08l-4.39-1.82a1.1,1.1,0,0,1-.65-.78L36.95,32H34l-.82,2.71a1.1,1.1,0,0,1-.6.68l-4.08,1.83a1.1,1.1,0,0,1-1,0L25,35.81,22.89,38l1.33,2a1.1,1.1,0,0,1,.11,1l-1.66,4.4a1.1,1.1,0,0,1-.72.67l-2.86.84v2.76l2.7.82a1.1,1.1,0,0,1,.7.63l1.82,4.42a1.1,1.1,0,0,1-.09,1l-1.36,2.15,2.26,2.33,2.23-1.58a1.1,1.1,0,0,1,1.12-.09l4.09,2a1.1,1.1,0,0,1,.55.6Z"/>
	<path d="M35.41,56.48a8.1,8.1,0,1,1,8.1-8.1A8.11,8.11,0,0,1,35.41,56.48Zm0-14a5.9,5.9,0,1,0,5.9,5.9A5.91,5.91,0,0,0,35.41,42.48Z"/>
	<path d="M63.23,45.93H60.35a1.1,1.1,0,0,1-1-.7L58.48,43l-1.91-.93L55,43.25a1.1,1.1,0,0,1-1.44-.14l-2.45-2.59A1.1,1.1,0,0,1,51,39.17l1-1.52-.87-2.12-2-.6a1.1,1.1,0,0,1-.78-1.05V30.75a1.1,1.1,0,0,1,.79-1.06l2-.6.8-2-1-1.46a1.1,1.1,0,0,1,.11-1.36l2.35-2.52a1.1,1.1,0,0,1,1.35-.2l1.75,1,1.91-.86.6-2a1.1,1.1,0,0,1,1.05-.78h3.3a1.1,1.1,0,0,1,1.07.86L65,21.68l2,.85,1.51-1a1.1,1.1,0,0,1,1.36.13L72.31,24a1.1,1.1,0,0,1,.18,1.35l-1,1.69.85,2.09,1.89.42a1.1,1.1,0,0,1,.86,1.07v3.24a1.1,1.1,0,0,1-.77,1l-1.95.62-.87,2,1,1.79a1.1,1.1,0,0,1-.18,1.32L70,43.08a1.1,1.1,0,0,1-1.39.15L67,42.16l-2.08.94-.62,2A1.1,1.1,0,0,1,63.23,45.93Zm-2.13-2.2h1.31L62.95,42a1.1,1.1,0,0,1,.6-.68l3.09-1.4a1.1,1.1,0,0,1,1.06.08l1.38.91,1.13-1.14-.87-1.53a1.1,1.1,0,0,1-.05-1l1.28-3a1.1,1.1,0,0,1,.68-.62l1.66-.53V31.55l-1.59-.35a1.1,1.1,0,0,1-.78-.66l-1.28-3.13a1.1,1.1,0,0,1,.07-1L70.16,25,69,23.88l-1.27.82a1.1,1.1,0,0,1-1,.09l-3.1-1.29a1.1,1.1,0,0,1-.65-.78l-.36-1.62H61l-.51,1.7a1.1,1.1,0,0,1-.6.69L57,24.77a1.09,1.09,0,0,1-1-.05l-1.48-.85-1.16,1.25.8,1.22a1.1,1.1,0,0,1,.1,1L53,30.4a1.1,1.1,0,0,1-.71.65l-1.77.52v1.49l1.67.51a1.1,1.1,0,0,1,.7.64l1.28,3.13a1.1,1.1,0,0,1-.09,1l-.82,1.28,1.2,1.27,1.35-1A1.1,1.1,0,0,1,57,39.85l2.88,1.4a1.1,1.1,0,0,1,.54.59Z"/>
	<path d="M61.79,38.68h-.06a6.28,6.28,0,0,1,.06-12.56h.06a6.28,6.28,0,0,1-.06,12.56Zm0-10.36a4.08,4.08,0,0,0-.05,8.16h.05a4.08,4.08,0,0,0,0-8.16Z"/>
	<path d="M63.23,78.23H60.35a1.1,1.1,0,0,1-1-.7l-.84-2.19-1.91-.93L55,75.55a1.1,1.1,0,0,1-1.44-.14l-2.45-2.59A1.1,1.1,0,0,1,51,71.47l1-1.52-.87-2.12-2-.6a1.1,1.1,0,0,1-.78-1.05V63A1.1,1.1,0,0,1,49.13,62l2-.6L52,59.26,51,57.8a1.1,1.1,0,0,1,.12-1.36L53.48,54a1.1,1.1,0,0,1,1.35-.2l1.76,1,1.91-.83.6-2a1.1,1.1,0,0,1,1.05-.78h3.3a1.1,1.1,0,0,1,1.07.86L65,54l2,.85,1.51-1a1.1,1.1,0,0,1,1.36.13l2.45,2.36a1.1,1.1,0,0,1,.18,1.35l-1,1.69.85,2.09,1.89.42a1.1,1.1,0,0,1,.86,1.07v3.24a1.1,1.1,0,0,1-.77,1l-1.95.62-.87,2,1,1.79A1.1,1.1,0,0,1,72.35,73L70,75.35a1.1,1.1,0,0,1-1.39.14L67,74.43l-2.08.94-.63,2.07A1.1,1.1,0,0,1,63.23,78.23ZM61.1,76h1.31l.53-1.77a1.1,1.1,0,0,1,.6-.68l3.09-1.4a1.1,1.1,0,0,1,1.06.08l1.38.91L70.2,72l-.87-1.54a1.1,1.1,0,0,1-.05-1l1.28-3a1.1,1.1,0,0,1,.68-.62l1.66-.53V63.82l-1.59-.35a1.1,1.1,0,0,1-.78-.66l-1.28-3.13a1.1,1.1,0,0,1,.07-1l.84-1.41L69,56.15,67.7,57a1.11,1.11,0,0,1-1,.09l-3.1-1.29a1.1,1.1,0,0,1-.65-.78l-.36-1.62H61l-.51,1.7a1.1,1.1,0,0,1-.62.69L57,57A1.09,1.09,0,0,1,56,57l-1.49-.86-1.15,1.22.8,1.21a1.1,1.1,0,0,1,.11,1L53,62.69a1.1,1.1,0,0,1-.72.66l-1.77.52v1.49l1.67.51a1.1,1.1,0,0,1,.7.64l1.28,3.13a1.1,1.1,0,0,1-.09,1l-.82,1.28,1.2,1.27,1.35-1A1.1,1.1,0,0,1,57,72.15l2.88,1.4a1.11,1.11,0,0,1,.54.59Z"/>
	<path d="M61.79,71h-.06a6.28,6.28,0,0,1,.06-12.56h.06A6.28,6.28,0,0,1,61.79,71Zm0-10.36a4.08,4.08,0,0,0-.05,8.16h0a4,4,0,0,0,2.9-1.17,4.08,4.08,0,0,0-2.82-7Z"/>
</svg>