<svg xmlns="http://www.w3.org/2000/svg" viewBox="0 0 100 100">
	<path d="M50.58,82,20.41,54.6H34.15V19H67V54.6H80.22Zm-25-25.43,25,22.71L75.12,56.6H65V21H36.15V56.6Z"/>
	<path d="M42.58,38.45v2.27H45V44H42.6v2.15H45v4.58h2.7V46.16h5.44V44H47.68V40.73h3.41a11.57,11.57,0,0,0,3.07-.39,7.15,7.15,0,0,0,2.47-1.19,5.68,5.68,0,0,0,1.66-2,6.19,6.19,0,0,0,.61-2.83,6.27,6.27,0,0,0-.57-2.79,5.31,5.31,0,0,0-1.59-1.93,6.94,6.94,0,0,0-2.43-1.14,12.33,12.33,0,0,0-3.14-.37H45V38.45Zm8.58,0H47.68V30.36h3.48a6.26,6.26,0,0,1,3.66.94,3.44,3.44,0,0,1,1.34,3,3.67,3.67,0,0,1-1.34,3.1,5.89,5.89,0,0,1-3.66,1Z"/>
</svg>
