<svg xmlns="http://www.w3.org/2000/svg" viewBox="0 0 99 99">
	<path d="M76.56,52.47a4.2,4.2,0,0,0-2.67-4.19,5,5,0,0,0-3.23-8.68H56.52l.72-3.38a34.58,34.58,0,0,0,.11-11.08c-.51-3.46-3.55-7.32-6.85-7.32h-.24c-1.57,0-4.21.9-4.21,6.93,0,7.94-2,11.58-3.62,13.23a5.06,5.06,0,0,1-3.27,1.62h-1v-2H22.44V75.24H38.19v-2H65.74a5,5,0,0,0,3.87-8,5,5,0,0,0,3-7.92A5,5,0,0,0,76.56,52.47ZM24.41,73.26V39.6H36.22V73.26ZM71.64,55.44H60.82a1,1,0,0,0,0,2h7.87a3,3,0,0,1,0,5.94H58.85a1,1,0,0,0,0,2h6.89a3,3,0,0,1,0,5.94H38.19V41.58h1a6.71,6.71,0,0,0,4.61-2.12c2.79-2.77,4.2-7.72,4.2-14.71,0-1.85.29-5,2.24-5h.24c2.2,0,4.53,3.1,4.91,5.63a32.45,32.45,0,0,1-.09,10.38l-1.23,5.77H70.66a3,3,0,0,1,0,5.94H60.82a1,1,0,0,0,0,2h6.89a33.38,33.38,0,0,1,3.79.19c2.57.38,3.1,1.39,3.1,2.78A3,3,0,0,1,71.64,55.44Z"/>
</svg>
