<svg xmlns="http://www.w3.org/2000/svg" viewBox="0 0 98 98">
	<path d="M75.77,73.34l-7-8.9a10.09,10.09,0,0,0,5.52-4.06c1.64-2.82.9-6.26.18-9.58a26,26,0,0,1-.78-5.21,26,26,0,0,1,.78-5.22c.71-3.33,1.46-6.76-.18-9.58s-5.12-4-8.44-5a24.64,24.64,0,0,1-4.76-1.85,23.25,23.25,0,0,1-3.82-3.07C54.84,18.56,52.06,16,48.51,16s-6.33,2.56-8.79,4.83a23.26,23.26,0,0,1-3.82,3.07,24.64,24.64,0,0,1-4.76,1.85c-3.31,1-6.74,2.12-8.44,5s-.9,6.26-.18,9.58a26,26,0,0,1,.77,5.22,26,26,0,0,1-.78,5.22c-.71,3.32-1.46,6.76.18,9.58a10.09,10.09,0,0,0,5.52,4.05l-7,8.9a1.13,1.13,0,0,0,.2,1.6,1.15,1.15,0,0,0,.85.23l8.19-1,2,7a1.14,1.14,0,0,0,.88.8l.22,0a1.15,1.15,0,0,0,.91-.44l7.32-9.35a10.63,10.63,0,0,0,6.67,3,10.63,10.63,0,0,0,6.67-3l7.32,9.34a1.15,1.15,0,0,0,.91.44l.22,0a1.14,1.14,0,0,0,.88-.8l2-7,8.19,1a1.14,1.14,0,0,0,1.28-1A1.13,1.13,0,0,0,75.77,73.34ZM34.1,78.39l-1.67-5.81a1.15,1.15,0,0,0-1.24-.82l-6.42.8,5.75-7.34.63.2a24.63,24.63,0,0,1,4.76,1.85,23.24,23.24,0,0,1,3.82,3.07l.39.36Zm14.41-5.5c-2.65,0-4.87-2-7.23-4.22a25.22,25.22,0,0,0-4.23-3.38,26.67,26.67,0,0,0-5.22-2c-3-1-5.89-1.86-7.15-4s-.58-4.93.08-8a27.69,27.69,0,0,0,.83-5.69,27.67,27.67,0,0,0-.83-5.69c-.66-3-1.28-5.91-.08-8s4.12-3.06,7.15-4a26.68,26.68,0,0,0,5.22-2,25.23,25.23,0,0,0,4.23-3.38c2.36-2.17,4.59-4.22,7.23-4.22s4.87,2,7.23,4.22A25.23,25.23,0,0,0,60,25.87a26.68,26.68,0,0,0,5.22,2c3,1,5.89,1.86,7.15,4s.58,4.93-.08,8a27.69,27.69,0,0,0-.83,5.69,27.68,27.68,0,0,0,.83,5.69c.66,3,1.28,5.91.08,8s-4.12,3.06-7.15,4a26.68,26.68,0,0,0-5.22,2,25.23,25.23,0,0,0-4.23,3.38C53.39,70.85,51.16,72.9,48.51,72.9Zm17.33-1.13a1.15,1.15,0,0,0-1.24.82l-1.68,5.81-6-7.69.39-.36a23.26,23.26,0,0,1,3.82-3.07,24.63,24.63,0,0,1,4.76-1.85l.63-.2,5.75,7.34Z"/>
	<path d="M48.51,25.1A20.48,20.48,0,1,0,69.14,45.59,20.55,20.55,0,0,0,48.51,25.1Zm0,38.69A18.21,18.21,0,1,1,66.85,45.59,18.27,18.27,0,0,1,48.51,63.79Z"/>
	<path d="M61.74,40.83a2.3,2.3,0,0,0-1.85-.94h-7l-2.18-6.63a2.3,2.3,0,0,0-4.35,0L44.17,39.9h-7A2.27,2.27,0,0,0,35.8,44l5.68,4.1-2.17,6.63a2.27,2.27,0,0,0,1.47,2.87,2.3,2.3,0,0,0,2.06-.32l5.68-4.1,5.68,4.1a2.27,2.27,0,0,0,2.7,0,2.23,2.23,0,0,0,.83-2.54l-2.17-6.63L61.23,44A2.27,2.27,0,0,0,61.74,40.83Zm-8.2,5.92A1.13,1.13,0,0,0,53.12,48l2.43,7.42-6.35-4.58a1.15,1.15,0,0,0-1.35,0l-6.35,4.58L43.91,48a1.13,1.13,0,0,0-.42-1.27l-6.35-4.58H45a1.15,1.15,0,0,0,1.09-.79L48.51,34l2.43,7.42a1.15,1.15,0,0,0,1.09.79h7.85Z"/>
</svg>