<svg xmlns="http://www.w3.org/2000/svg" viewBox="0 0 98 98">
	<path d="M49.49,80c-9.92,0-18.18-6.91-21.17-10.57l-.25-.3,0-.39A21.12,21.12,0,0,1,38.93,52.39l.7-.37.52.59a13.22,13.22,0,0,0,9.34,3.88,11.72,11.72,0,0,0,8.86-3.83l.49-.63.72.34A20.47,20.47,0,0,1,70.44,68.72l0,.39-.24.31C67.4,73.07,59.42,80,49.49,80ZM30.12,68.47c3,3.47,10.47,9.53,19.36,9.53s16.11-6.05,18.92-9.51a18.49,18.49,0,0,0-9-14,14.18,14.18,0,0,1-9.88,4,15.63,15.63,0,0,1-10.27-4A19.13,19.13,0,0,0,30.12,68.47Z"/>
	<path d="M49.49,54.83a12.2,12.2,0,1,1,12.06-12.2A12.14,12.14,0,0,1,49.49,54.83Zm0-22.39a10.2,10.2,0,1,0,10.06,10.2A10.14,10.14,0,0,0,49.49,32.44Z"/>
	<path d="M75.06,56.27c-6.08,0-11.14-4.26-13-6.52l-.25-.3,0-.39a13.16,13.16,0,0,1,6.69-10.18l.7-.37.52.6a7.56,7.56,0,0,0,5.28,2.2,6.66,6.66,0,0,0,5-2.15l.49-.64.73.35A12.76,12.76,0,0,1,88,49l0,.38-.23.3C86,52,81.15,56.27,75.06,56.27ZM63.9,48.8c1.8,2.05,6.09,5.47,11.16,5.47s9.19-3.41,10.9-5.46A10.76,10.76,0,0,0,81,41a8.8,8.8,0,0,1-6,2.29A9.62,9.62,0,0,1,68.87,41,11.16,11.16,0,0,0,63.9,48.8Z"/>
	<path d="M75.06,40.7a7.35,7.35,0,1,1,7.21-7.35A7.29,7.29,0,0,1,75.06,40.7Zm0-12.7a5.35,5.35,0,1,0,5.21,5.35A5.29,5.29,0,0,0,75.06,28Z"/>
	<path d="M24.18,56.27c-6.08,0-11.14-4.26-13-6.52l-.25-.3,0-.39a13.16,13.16,0,0,1,6.69-10.18l.7-.37.52.6a7.57,7.57,0,0,0,5.28,2.2,6.66,6.66,0,0,0,5-2.15l.49-.64.73.34A12.76,12.76,0,0,1,37.11,49l0,.38-.23.3C35.17,52,30.27,56.27,24.18,56.27ZM13,48.8c1.8,2.05,6.09,5.47,11.16,5.47s9.19-3.41,10.9-5.46A10.76,10.76,0,0,0,30.15,41a8.79,8.79,0,0,1-6,2.29A9.62,9.62,0,0,1,18,41,11.16,11.16,0,0,0,13,48.8Z"/>
	<path d="M24.18,40.7a7.35,7.35,0,1,1,7.21-7.35A7.29,7.29,0,0,1,24.18,40.7Zm0-12.7a5.35,5.35,0,1,0,5.21,5.35A5.29,5.29,0,0,0,24.18,28Z"/>
</svg>