<svg xmlns="http://www.w3.org/2000/svg" viewBox="0 0 98 98">
  <path d="M23.64,30.6,23,30.28l-.07.15v.17Zm4.82.9v-.7h-.13Zm25.68-3.35h.69v-.07Zm-11.44,15Zm5.82-23.26-.69,0v0ZM64,17.7l.22-.67H64ZM37.84,62.1v-.7a.7.7,0,0,0-.69.7Zm2.09,0h.69a.7.7,0,0,0-.69-.7Zm0,2.77v.7a.7.7,0,0,0,.69-.7Zm-2.09,0h-.69a.7.7,0,0,0,.69.7Zm3.69-2.77v-.7a.7.7,0,0,0-.69.7Zm2.09,0h.69a.7.7,0,0,0-.69-.7Zm0,2.77v.7a.7.7,0,0,0,.69-.7Zm-2.09,0h-.69a.7.7,0,0,0,.69.7Zm3.69-2.77v-.7a.7.7,0,0,0-.69.7Zm2.09,0H48a.7.7,0,0,0-.69-.7Zm0,2.77v.7a.7.7,0,0,0,.69-.7Zm-2.09,0h-.69a.7.7,0,0,0,.69.7Zm3.69-2.77v-.7a.7.7,0,0,0-.69.7Zm2.09,0h.69a.7.7,0,0,0-.69-.7Zm0,2.77v.7a.7.7,0,0,0,.69-.7Zm-2.09,0h-.69a.7.7,0,0,0,.69.7ZM52.6,62.1v-.7a.7.7,0,0,0-.69.7Zm2.09,0h.69a.7.7,0,0,0-.69-.7Zm0,2.77v.7a.7.7,0,0,0,.69-.7Zm-2.09,0h-.69a.7.7,0,0,0,.69.7Zm3.7-2.77v-.7a.7.7,0,0,0-.69.7Zm2.09,0h.69a.7.7,0,0,0-.69-.7Zm0,2.77v.7a.7.7,0,0,0,.69-.7Zm-2.09,0h-.69a.7.7,0,0,0,.69.7ZM60,62.1v-.7a.7.7,0,0,0-.69.7Zm2.09,0h.69a.7.7,0,0,0-.69-.7Zm0,2.77v.7a.7.7,0,0,0,.69-.7Zm-2.09,0h-.7a.7.7,0,0,0,.69.7Zm3.69-2.77v-.7a.7.7,0,0,0-.69.7Zm2.09,0h.69a.7.7,0,0,0-.69-.7Zm0,2.77v.7a.7.7,0,0,0,.69-.7Zm-2.09,0H63a.7.7,0,0,0,.69.7Zm3.69-2.77v-.7a.7.7,0,0,0-.69.7Zm2.09,0h.69a.7.7,0,0,0-.69-.7Zm0,2.77v.7a.7.7,0,0,0,.69-.7Zm-2.09,0h-.69a.7.7,0,0,0,.69.7Zm3.69-2.77v-.7a.7.7,0,0,0-.69.7Zm2.09,0h.69a.7.7,0,0,0-.69-.7Zm0,2.77v.7a.7.7,0,0,0,.69-.7Zm-2.09,0h-.69a.7.7,0,0,0,.69.7Zm3.69-2.77v-.7a.7.7,0,0,0-.69.7Zm2.09,0h.69a.7.7,0,0,0-.69-.7Zm0,2.77v.7a.7.7,0,0,0,.69-.7Zm-2.09,0h-.69a.7.7,0,0,0,.69.7Zm3.69-2.77v-.7a.7.7,0,0,0-.69.7Zm2.09,0h.69a.7.7,0,0,0-.69-.7Zm0,2.77v.7a.7.7,0,0,0,.69-.7Zm-2.09,0h-.69a.7.7,0,0,0,.69.7Zm-40.61,2v-.7a.7.7,0,0,0-.69.7Zm2.09,0h.69a.7.7,0,0,0-.69-.7Zm0,2.77v.7a.7.7,0,0,0,.69-.7Zm-2.09,0h-.69a.7.7,0,0,0,.69.7Zm3.69-2.77v-.7a.7.7,0,0,0-.69.7Zm2.09,0h.69a.7.7,0,0,0-.69-.7Zm0,2.77v.7a.7.7,0,0,0,.69-.7Zm-2.09,0h-.69a.7.7,0,0,0,.69.7Zm3.69-2.77v-.7a.7.7,0,0,0-.69.7Zm2.09,0H48a.7.7,0,0,0-.69-.7Zm0,2.77v.7a.7.7,0,0,0,.69-.7Zm-2.09,0h-.69a.7.7,0,0,0,.69.7Zm3.69-2.77v-.7a.7.7,0,0,0-.69.7Zm2.09,0h.69a.7.7,0,0,0-.69-.7Zm0,2.77v.7a.7.7,0,0,0,.69-.7Zm-2.09,0h-.69a.7.7,0,0,0,.69.7Zm3.69-2.77v-.7a.7.7,0,0,0-.69.7Zm2.09,0h.69a.7.7,0,0,0-.69-.7Zm0,2.77v.7a.7.7,0,0,0,.69-.7Zm-2.09,0h-.69a.7.7,0,0,0,.69.7Zm3.69-2.77v-.7a.7.7,0,0,0-.69.7Zm2.09,0h.69a.7.7,0,0,0-.69-.7Zm0,2.77v.7a.7.7,0,0,0,.69-.7Zm-2.09,0H55.6a.7.7,0,0,0,.69.7ZM60,66.83v-.7a.7.7,0,0,0-.69.7Zm2.09,0h.69a.7.7,0,0,0-.69-.7Zm0,2.77v.7a.7.7,0,0,0,.69-.7ZM60,69.6h-.7a.7.7,0,0,0,.69.7Zm3.69-2.77v-.7a.7.7,0,0,0-.69.7Zm2.09,0h.69a.7.7,0,0,0-.69-.7Zm0,2.77v.7a.7.7,0,0,0,.69-.7Zm-2.09,0H63a.7.7,0,0,0,.69.7Zm3.69-2.77v-.7a.7.7,0,0,0-.69.7Zm2.09,0h.69a.7.7,0,0,0-.69-.7Zm0,2.77v.7a.7.7,0,0,0,.69-.7Zm-2.09,0h-.69a.7.7,0,0,0,.69.7Zm3.69-2.77v-.7a.7.7,0,0,0-.69.7Zm2.09,0h.69a.7.7,0,0,0-.69-.7Zm0,2.77v.7a.7.7,0,0,0,.69-.7Zm-2.09,0h-.69a.7.7,0,0,0,.69.7Zm3.69-2.77v-.7a.7.7,0,0,0-.69.7Zm2.09,0h.69a.7.7,0,0,0-.69-.7Zm0,2.77v.7a.7.7,0,0,0,.69-.7Zm-2.09,0h-.69a.7.7,0,0,0,.69.7Zm3.69-2.77v-.7a.7.7,0,0,0-.69.7Zm2.09,0h.69a.7.7,0,0,0-.69-.7Zm0,2.77v.7a.7.7,0,0,0,.69-.7Zm-2.09,0h-.69a.7.7,0,0,0,.69.7ZM19,55.48a.69.69,0,0,0-1.39,0ZM17.64,70A.69.69,0,1,0,19,70ZM36.16,58.54a.7.7,0,0,0,0,1.41Zm46.15.7H83a.7.7,0,0,0-.69-.7Zm0,13.06V73a.7.7,0,0,0,.69-.7Zm-46.15-.7a.71.71,0,0,0,0,1.41ZM36,52.6h.69a.7.7,0,0,0-.69-.7Zm0,19.7V73a.7.7,0,0,0,.69-.7Zm-20.3,0H15a.7.7,0,0,0,.69.7Zm0-19.67v-.7a.7.7,0,0,0-.69.7Zm.62.45,7.78-6.85-.91-1.06L15.4,52Zm7.33-6.68h3.53V45H23.64Zm3.1-.15,8.75,6.94.85-1.11L27.6,45.14Zm-2.41-.55V40.06H23v5.63Zm0-5.63V37.7H23v2.37Zm0-2.37V30.6H23v7.1Zm-.07-6.79a5.54,5.54,0,0,1,1-1.35,2,2,0,0,1,1.31-.71v-1.4a3.33,3.33,0,0,0-2.29,1.12A6.94,6.94,0,0,0,23,30.28Zm2.27-2.06H42.66v-1.4H26.53ZM42,28.15V31.5h1.39V28.15Zm.69,2.64H28.45V32.2H42.66Zm-14.33,0a2.91,2.91,0,0,0-1.07.44,1.69,1.69,0,0,0-.78,1.39H27.9s0-.11.18-.23a1.54,1.54,0,0,1,.54-.22Zm-1.85,1.83V37.7H27.9V32.64Zm0,5.06V40H27.9V37.7Zm0,2.37v5.63H27.9V40.06ZM21.39,38.4h2.25V37H21.39Zm2.25,0h3.53V37H23.64Zm3.53,0h2V37h-2Zm-5.78,2.37h2.25V39.36H21.39Zm2.25,0h3.53V39.36H23.64Zm3.53,0h2V39.36h-2ZM43.35,28.25a7,7,0,0,1,1.37-3.18,4.65,4.65,0,0,1,3.8-1.85V21.81a6,6,0,0,0-4.89,2.38A8.45,8.45,0,0,0,42,28Zm5.17-5a4.4,4.4,0,0,1,3.7,1.83,6.71,6.71,0,0,1,1.23,3.17l1.38-.14a8.12,8.12,0,0,0-1.5-3.87,5.78,5.78,0,0,0-4.81-2.39ZM41.3,34.73h1.37V33.32H41.3Zm1.37,0H54.14V33.32H42.67Zm11.47,0h1.52V33.32H54.14Zm1.52,1.12H54.14v1.41h1.52Zm-1.52,0H42.67v1.41H54.14Zm-11.46,0H41.3v1.41h1.38Zm.71,7.31V36.55H42v6.61Zm0-6.61V34H42v2.53Zm0-2.53V31.49H42V34Zm-.67,8.44H39.61v1.41h3.08Zm.74,16.37V54H42v4.81Zm0-4.81V51.57H42V54Zm0-2.45V47H42v4.57Zm0-4.57V43.16H42V47Zm-.69-.7h-3.1v1.4h3.1ZM39,41.3v1.88H40.3V41.29ZM40.3,47V43.16H38.92V47Zm-1.39,0v1.63H40.3V47Zm10.3-24.48V19.91H47.82v2.61Zm0-2.56a2.75,2.75,0,0,1,.31-1.08.77.77,0,0,1,.68-.48V17a2.14,2.14,0,0,0-1.88,1.18,4.16,4.16,0,0,0-.5,1.68Zm1-1.55H64V17H50.2Zm13.58,0a1.59,1.59,0,0,1,1,1.54h1.39a3,3,0,0,0-1.95-3Zm1,1.54v2.61h1.39V19.91Zm.6,3.31a6.76,6.76,0,0,1,3.08,1.3,4.41,4.41,0,0,1,1.78,3.63H71.6a5.83,5.83,0,0,0-2.32-4.75,8.13,8.13,0,0,0-3.74-1.58Zm0-1.4a8.28,8.28,0,0,0-3.9,1.57,6,6,0,0,0-2.41,4.92h1.39a4.56,4.56,0,0,1,1.86-3.8,6.9,6.9,0,0,1,3.22-1.3ZM58.15,34.73h1.61V33.32H58.15Zm1.61,0H70.91V33.32H59.75Zm11.16,0h2V33.32h-2Zm2,1.12h-2v1.41h2Zm-2,0H59.75v1.41H70.91Zm-11.16,0H58.15v1.41h1.61Zm-6.31-7.7V34h1.39V28.15Zm0,5.88v2.53h1.39V34Zm0,2.53v6.37h1.39V36.55Zm5.62-8.24V34h1.39V28.31Zm0,5.71v2.53h1.39V34Zm0,2.53v6.37h1.39V36.55Zm-4.92,7.07h5.62V42.22H54.14Zm4.92-.7V47h1.39V42.92Zm0,4.08v4.57h1.39V47Zm0,4.57V54h1.39V51.57Zm0,2.45v4.81h1.39V54Zm-5.62-11.1V47h1.39V42.92Zm0,4.08v4.57h1.39V47Zm0,4.57V54h1.39V51.57Zm0,2.45v4.81h1.39V54Zm6.31-7.72H54.14V47.7h5.62ZM70.22,28.15V34H71.6V28.15Zm0,5.88v2.53H71.6V34Zm0,2.53v5.39H71.6v-5.4Zm0,5.39v9.63H71.6V41.94Zm0,9.63V54H71.6V51.57Zm0,2.45v5.14H71.6V54Zm.69-11.37H75.4V41.24H70.91Zm4.49,0a1.23,1.23,0,0,1,.87.5A3.9,3.9,0,0,1,77,45.69h1.39a5.27,5.27,0,0,0-1-3.46,2.59,2.59,0,0,0-1.93-1Zm1.6,3V59.16h1.39V45.69Zm-4,5.17H71v1.41h2Zm-2,0H59.75v1.41H70.91Zm-11.16,0H58.15v1.41h1.61Zm-1.61,3.85h1.61v-1.4H58.15Zm1.61,0H70.91v-1.4H59.75Zm11.16,0h2v-1.4H71ZM55.66,50.87H54.14v1.41h1.52Zm-1.52,0H42.72v1.41H54.14Zm-11.42,0H40.89v1.41h1.82ZM40.9,54.72h1.83V53.31H40.89Zm1.83,0H54.14V53.31H42.73Zm11.41,0h1.52V53.31H54.14ZM37.84,62.8h2.09V61.39H37.84Zm1.39-.7v2.77h1.39V62.1Zm.69,2.07H37.84v1.41h2.09Zm-1.39.7V62.1H37.15v2.77Zm3-2.07h2.09V61.39H41.54Zm1.39-.7v2.77h1.39V62.1Zm.69,2.07H41.54v1.41h2.09Zm-1.39.7V62.1H40.84v2.77Zm3-2.07h2.09V61.39H45.23Zm1.39-.7v2.77H48V62.1Zm.69,2.07H45.23v1.41h2.09Zm-1.39.7V62.1H44.53v2.77Zm3-2.07H51V61.39H48.92Zm1.39-.7v2.77h1.4V62.1Zm.7,2.07H48.92v1.41H51Zm-1.39.7V62.1H48.23v2.77Zm3-2.07H54.7V61.39H52.61ZM54,62.1v2.77h1.39V62.1Zm.69,2.07H52.61v1.41H54.7Zm-1.39.7V62.1H51.92v2.77Zm3-2.07h2.09V61.39H56.3Zm1.39-.7v2.77h1.39V62.1Zm.69,2.07H56.3v1.41h2.09Zm-1.39.7V62.1H55.61v2.77Zm3-2.07h2.09V61.39H60Zm1.39-.7v2.77h1.39V62.1Zm.69,2.07H60v1.41h2.09Zm-1.39.7V62.1H59.3v2.77Zm3-2.07h2.09V61.39H63.69Zm1.39-.7v2.77h1.39V62.1Zm.69,2.07H63.69v1.41h2.09Zm-1.39.7V62.1H63v2.77Zm3-2.07h2.09V61.39H67.38Zm1.39-.7v2.77h1.39V62.1Zm.69,2.07H67.38v1.41h2.09Zm-1.39.7V62.1H66.68v2.77Zm3-2.07h2.09V61.39H71.07Zm1.39-.7v2.77h1.39V62.1Zm.69,2.07H71.07v1.41h2.09Zm-1.39.7V62.1H70.38v2.77Zm3-2.07h2.09V61.39H74.76Zm1.39-.7v2.77h1.39V62.1Zm.69,2.07H74.76v1.41h2.09Zm-1.39.7V62.1H74.07v2.77Zm3-2.07h2.09V61.39H78.45Zm1.39-.7v2.77h1.39V62.1Zm.69,2.07H78.45v1.41h2.09Zm-1.39.7V62.1H77.76v2.77Zm-41.3,2.66h2.09v-1.4H37.84Zm1.39-.7V69.6h1.39V66.83Zm.69,2.07H37.84v1.41h2.09Zm-1.39.7V66.83H37.15V69.6Zm3-2.07h2.09v-1.4H41.54Zm1.39-.7V69.6H44.3V66.83Zm.69,2.07H41.54v1.41h2.09Zm-1.39.7V66.83H40.84V69.6Zm3-2.07H47.3v-1.4H45.23Zm1.39-.7V69.6H48V66.83Zm.69,2.07H45.23v1.41h2.09Zm-1.39.7V66.83H44.53V69.6Zm3-2.07H51v-1.4H48.92Zm1.39-.7V69.6H51.7V66.83ZM51,68.9H48.92v1.41H51Zm-1.39.7V66.83H48.23V69.6Zm3-2.07H54.7v-1.4H52.61Zm1.39-.7V69.6h1.39V66.83Zm.69,2.07H52.61v1.41H54.7Zm-1.39.7V66.83H51.92V69.6Zm3-2.07h2.09v-1.4H56.3Zm1.39-.7V69.6h1.39V66.83Zm.69,2.07H56.3v1.41h2.09ZM57,69.6V66.83H55.61V69.6Zm3-2.07h2.09v-1.4H60Zm1.39-.7V69.6h1.39V66.83Zm.69,2.07H60v1.41h2.09Zm-1.39.7V66.83H59.3V69.6Zm3-2.07h2.09v-1.4H63.69Zm1.39-.7V69.6h1.39V66.83Zm.69,2.07H63.69v1.41h2.09Zm-1.39.7V66.83H63V69.6Zm3-2.07h2.09v-1.4H67.38Zm1.39-.7V69.6h1.39V66.83Zm.69,2.07H67.38v1.41h2.09Zm-1.39.7V66.83H66.68V69.6Zm3-2.07h2.09v-1.4H71.07Zm1.39-.7V69.6h1.39V66.83Zm.69,2.07H71.07v1.41h2.09Zm-1.39.7V66.83H70.38V69.6Zm3-2.07h2.09v-1.4H74.76Zm1.39-.7V69.6h1.39V66.83Zm.69,2.07H74.76v1.41h2.09Zm-1.39.7V66.83H74.07V69.6Zm3-2.07h2.09v-1.4H78.45Zm1.39-.7V69.6h1.39V66.83Zm.69,2.07H78.45v1.41h2.09Zm-1.39.7V66.83H77.76V69.6ZM49.67,45a1.65,1.65,0,0,1-1.6,1.7H48v1.41a3,3,0,0,0,3-3s0,0,0-.07ZM48,46.7A1.65,1.65,0,0,1,46.4,45H45a3,3,0,0,0,2.93,3.07H48ZM46.4,45A1.65,1.65,0,0,1,48,43.38V42a3,3,0,0,0-3,3ZM48,43.38A1.65,1.65,0,0,1,49.67,45h1.39a3,3,0,0,0-3-3H48ZM67,45a1.65,1.65,0,0,1-1.63,1.66v1.41a3,3,0,0,0,3-3s0,0,0-.07Zm-1.63,1.7A1.65,1.65,0,0,1,63.74,45v0H62.35a3,3,0,0,0,2.93,3.07h.07ZM63.74,45a1.65,1.65,0,0,1,1.63-1.66V42a3,3,0,0,0-3,3s0,0,0,.07Zm1.63-1.66A1.65,1.65,0,0,1,67,45h1.39a3,3,0,0,0-2.93-3.07h-.07ZM17.64,55.48V70H19V55.48ZM36.16,60H82.31V58.54H36.16Zm45.45-.7V72.3H83V59.24ZM82.3,71.6H36.16V73H82.31Zm-47-19V72.3h1.39V52.63Zm.69,19H15.69V73H36Zm-19.61.7V52.63H15V72.3Zm-.69-19H36V51.93H15.69Z"/>
</svg>
