<svg xmlns="http://www.w3.org/2000/svg" viewBox="0 0 26.5 31.76">
  <defs>
    <style>
      .cls-1 {
        fill: none;
        stroke: #a63f14;
        stroke-width: 1.5px;
      }
    </style>
  </defs>
  <title>Phone</title>
  <g id="Слой_2" data-name="Слой 2">
    <g id="Слой_1-2" data-name="Слой 1">
      <path class="cls-1" d="M3.43,1.36,1.13,4.14C.74,4.6.32,6.5,1.7,10.38,3.43,15.24,7.63,21,9.78,23.56a25,25,0,0,0,9.81,6.94c2.38.86,3.27.46,3.46,0l2.31-2.77c.92-1.11,0-2.31-.58-2.77l-4-3.47a1.4,1.4,0,0,0-2.31,0,6.47,6.47,0,0,1-2.31,1.39c-1.38.56-2.78-1-3.84-2.08A19.67,19.67,0,0,1,8,14.54c-1-2.08-.38-4.16.58-4.86s.38-2.08,0-2.77L5.74,1.36A1.4,1.4,0,0,0,3.43,1.36Z"/>
    </g>
  </g>
</svg>
