<svg xmlns="http://www.w3.org/2000/svg" viewBox="0 0 21.5 21.51">
  <path class="a" d="M17.68,21.51a7.52,7.52,0,0,1-2.07-.37,21.26,21.26,0,0,1-8.16-4.77C7,15.87,2.56,11.45.82,7.42-.35,4.7-.1,3.08.52,2.46L2.37.63a2,2,0,0,1,2.9,0l.11.13L7.68,4.43a2.68,2.68,0,0,1,.47,1.89,1.51,1.51,0,0,1-.72,1,1.69,1.69,0,0,0-.19,2.2l.11.18a12.22,12.22,0,0,0,3.12,3.74l.12.1c.66.57,1.57,1.35,2.23,1.13a5,5,0,0,0,1.55-.74,2,2,0,0,1,2.85,0l3.18,2.26a2.41,2.41,0,0,1,1.08,1.62A1.65,1.65,0,0,1,21,19.12l-1.78,1.77A1.68,1.68,0,0,1,17.68,21.51ZM3.82,1.5a.59.59,0,0,0-.4.19L1.58,3.53c-.11.17-.28,1.21.62,3.3,1.32,3.06,4.58,6.77,6.3,8.48A19.6,19.6,0,0,0,16,19.7,4,4,0,0,0,18,20h0l1.93-1.92s.1-.11.09-.15a1,1,0,0,0-.44-.53L16.21,15a.52.52,0,0,0-.79,0,5.94,5.94,0,0,1-2.14,1.1c-1.46.49-2.8-.66-3.68-1.42l-.11-.1A13.69,13.69,0,0,1,6,10.44l-.11-.19A3.13,3.13,0,0,1,6.66,6a1,1,0,0,0-.24-.77L4.16,1.64A.52.52,0,0,0,3.82,1.5Z"/>
</svg>