<svg xmlns="http://www.w3.org/2000/svg" viewBox="0 0 37.89 55" width="60" height="60">
	<defs>
		<style>
			.cls-1{fill:#a63f14;}
		</style>
	</defs>
	<path class="cls-1" d="M37,13.69a17.14,17.14,0,0,0-.89-2.2A18.49,18.49,0,0,0,18.69,0,18.51,18.51,0,0,0,0,17.06v2.35c0,.1,0,1,.08,1.42.69,5.48,5,11.29,8.23,16.77C11.78,43.46,15.39,49.23,19,55c2.2-3.76,4.39-7.58,6.54-11.24.59-1.08,1.27-2.15,1.85-3.18.39-.68,1.14-1.37,1.48-2,3.47-6.36,9.06-12.76,9.06-19.07V16.92A19.52,19.52,0,0,0,37,13.69ZM18.84,25.47a6.72,6.72,0,0,1-6.44-4.6,6.38,6.38,0,0,1-.18-1.71V17.65c0-4.3,3.65-6.26,6.83-6.26a6.92,6.92,0,0,1,6.94,7A7.1,7.1,0,0,1,18.84,25.47Z"/>
</svg>