<svg xmlns="http://www.w3.org/2000/svg" viewBox="0 0 358 369">
	<defs>
		<style>
			.cls-1 {
			fill: #b8b8b8;
			}

			.cls-2 {
			fill: #fff;
			}
		</style>
	</defs>
	<rect class="cls-1" width="358" height="369"/>
	<path class="cls-2"
	      d="M183,181.43c31.28,0,56.64-30.76,56.64-68.71S231.32,44,183,44s-56.65,30.76-56.65,68.71S151.72,181.43,183,181.43Z"/>
	<path class="cls-2" d="M76,286.35c0-2.31,0-.65,0,0Z"/>
	<path class="cls-2" d="M290,288.15c0-.63,0-4.4,0,0Z"/>
	<path class="cls-2"
	      d="M289.86,283.57c-1-66.11-9.69-84.95-75.85-96.87,0,0-9.31,11.85-31,11.85s-31-11.85-31-11.85c-65.43,11.79-74.6,30.35-75.81,94.72-.1,5.26-.14,5.53-.16,4.92,0,1.14,0,3.26,0,6.95,0,0,15.75,31.71,107,31.71s107-31.71,107-31.71c0-2.37,0-4,0-5.14A42.9,42.9,0,0,1,289.86,283.57Z"/>
</svg>
